# xmcd
#
# Track frame offsets:
# 150
# 16152
# 28807
# 44692
# 61230
# 82192
# 95072
# 110842
# 127917
# 147205
#
# Disc length: 2193 seconds
#
#
# Revision: 0
# Processed by: cddbd v1.5.1PL2 Copyright (c) Steve Scherf et al.
# Submitted via: FreeRIP 2.943 
#
DISCID=8c088f0a
DTITLE=Various Artist - The Best of 90s Country - Disc 2
DYEAR=2004
DGENRE=Country
TTITLE0=When My Ship Comes In - Clint Black
TTITLE1=There Ain't Nothin Wrong With The Radio - Aaron Tippin
TTITLE2=Let That Pony Run - Pam Tillis
TTITLE3=Every Once In a While - BlackHawk
TTITLE4=Something in Red - Lorrie Morgan
TTITLE5=If Bubba Can Dance (I Can Too) - Shennandoah
TTITLE6=Nobody Wins - Radney Foster
TTITLE7=I Don't Call Him Daddy - Doug Supernaw
TTITLE8=I'm Holding My Own - Lee Roy Parnell
TTITLE9=Now I Know - Lari White
EXTD=
EXTT0=
EXTT1=
EXTT2=
EXTT3=
EXTT4=
EXTT5=
EXTT6=
EXTT7=
EXTT8=
EXTT9=
PLAYORDER=
